<svg xmlns="http://www.w3.org/2000/svg" viewBox="0 0 164 30">
  <g>
    <polygon points="23.23 0.64 23.23 11.81 29.96 11.81 29.96 9.99 25.16 9.99 25.16 0.64 23.23 0.64" fill="#fff"/>
    <polygon points="101.1 0.64 97.87 6.22 94.64 11.81 101.1 11.81 107.55 11.81 104.32 6.22 101.1 0.64" fill="#ffcb1f"/>
    <path d="M158.82,3.16l1.81,5H157ZM157.72.64l-4,11.17h2l.65-1.82h4.93l.65,1.82H164L159.88.64Z" fill="#fff"/>
    <path d="M126.82,10h-1.9V2.47h1.9c1.94,0,3.45,1.33,3.45,3.76S128.76,10,126.82,10m0-9.35H123V11.81h3.84a5.33,5.33,0,0,0,5.38-5.58A5.33,5.33,0,0,0,126.82.64" fill="#fff"/>
    <polygon points="12.78 0.64 12.78 11.81 20.13 11.81 20.13 9.99 14.71 9.99 14.71 7.14 19.21 7.14 19.21 5.32 14.71 5.32 14.71 2.47 20.13 2.47 20.13 0.64 12.78 0.64" fill="#fff"/>
    <path d="M48,12A5.73,5.73,0,1,0,42.3,6.23,5.73,5.73,0,0,0,48,12" fill="#ffcb1f"/>
    <polygon points="64.27 0.64 64.27 8.56 58.61 0.64 56.67 0.64 56.67 11.81 58.61 11.81 58.61 3.9 64.27 11.81 66.21 11.81 66.21 0.64 64.27 0.64" fill="#fff"/>
    <polygon points="7.6 0.64 7.6 8.56 1.94 0.64 0 0.64 0 11.81 1.94 11.81 1.94 3.9 7.6 11.81 9.54 11.81 9.54 0.64 7.6 0.64" fill="#fff"/>
    <polygon points="117.66 0.64 117.66 8.56 112 0.64 110.06 0.64 110.06 11.81 112 11.81 112 3.9 117.66 11.81 119.6 11.81 119.6 0.64 117.66 0.64" fill="#fff"/>
    <polygon points="90.17 0.64 86.27 6.81 82.36 0.64 80.43 0.64 80.43 11.81 82.36 11.81 82.36 4.13 85.49 9.13 87.05 9.13 90.17 4.13 90.17 11.81 92.12 11.81 92.12 0.64 90.17 0.64" fill="#fff"/>
    <polygon points="145.29 0.64 145.29 11.81 152.02 11.81 152.02 9.99 147.22 9.99 147.22 0.64 145.29 0.64" fill="#fff"/>
    <polygon points="134.79 0.64 134.79 11.81 142.14 11.81 142.14 9.99 136.72 9.99 136.72 7.14 141.22 7.14 141.22 5.32 136.72 5.32 136.72 2.47 142.14 2.47 142.14 0.64 134.79 0.64" fill="#fff"/>
    <path d="M36.17,5.21c-1.24-.59-2.12-.93-2.12-1.78s.84-1.23,1.65-1.25c1.39,0,1.94.66,2,1.59h1.87C39.53,1.9,38.33.38,35.69.38c-2,0-3.59,1.33-3.57,3,0,1.48.88,2.26,3.35,3.5,1.4.66,2.37,1.06,2.39,2A1.71,1.71,0,0,1,36,10.34a2,2,0,0,1-2.21-1.79H31.86c.05,1.76,1.29,3.51,4.07,3.51,2.19,0,3.93-1.28,3.93-3.19,0-1.69-1.34-2.53-3.69-3.66" fill="#fff"/>
    <path d="M45.28,22.59a.33.33,0,0,0-.31.34v3.71c0,1.5-.7,2.36-1.92,2.36s-2-.88-2-2.41V22.93a.31.31,0,1,0-.62,0v3.71c0,1.83,1,3,2.56,3s2.56-1.17,2.56-3V22.93a.33.33,0,0,0-.31-.34" fill="#fff"/>
    <path d="M55.63,22.59a.31.31,0,0,0-.3.33v5.39l-3.91-5.53a.37.37,0,0,0-.3-.18h-.07a.33.33,0,0,0-.3.34v6.28a.3.3,0,1,0,.59,0V23.71l4,5.63c.07.09.16.2.29.2h0a.28.28,0,0,0,.26-.3V22.92a.31.31,0,0,0-.3-.33" fill="#fff"/>
    <path d="M61.51,22.59a.33.33,0,0,0-.31.34v6.29a.31.31,0,1,0,.62,0V22.93a.33.33,0,0,0-.31-.34" fill="#fff"/>
    <path d="M71.88,22.59a.37.37,0,0,0-.31.25l-2.23,5.81-2.22-5.8a.35.35,0,0,0-.31-.26.32.32,0,0,0-.31.33.3.3,0,0,0,0,.13L69,29.3c.07.19.18.28.34.28h0a.36.36,0,0,0,.35-.28L72.15,23a.24.24,0,0,0,0-.13.32.32,0,0,0-.3-.32" fill="#fff"/>
    <path d="M81,28.88H77.41V26.36h3.2A.32.32,0,0,0,80.9,26a.31.31,0,0,0-.29-.31h-3.2V23.26H81a.31.31,0,0,0,.29-.31.32.32,0,0,0-.29-.32H77.1a.33.33,0,0,0-.31.34v6.21a.32.32,0,0,0,.31.33H81a.3.3,0,0,0,.29-.31.31.31,0,0,0-.29-.32" fill="#fff"/>
    <path d="M89.34,26.62a2,2,0,0,0,1.23-3.3,2.32,2.32,0,0,0-1.76-.69H86.5a.33.33,0,0,0-.31.34v6.25a.31.31,0,1,0,.62,0V26.73h1.85l1.82,2.65a.35.35,0,0,0,.27.17.34.34,0,0,0,.32-.34A.33.33,0,0,0,91,29Zm1.09-2a1.47,1.47,0,0,1-1.67,1.45h-2V23.26h2c1,0,1.64.52,1.64,1.4" fill="#fff"/>
    <path d="M98,25.74c-1.42-.32-1.69-.74-1.69-1.4a1.26,1.26,0,0,1,1.39-1.19,2.3,2.3,0,0,1,1.61.62.32.32,0,0,0,.2.08.33.33,0,0,0,.31-.34.32.32,0,0,0-.13-.26,2.82,2.82,0,0,0-2-.71,1.9,1.9,0,0,0-2,1.86c0,1.07.61,1.64,2.1,2s1.65.72,1.65,1.37A1.31,1.31,0,0,1,98,29a2.62,2.62,0,0,1-2-.85.29.29,0,0,0-.2-.08.33.33,0,0,0-.31.33.35.35,0,0,0,.12.26,3.29,3.29,0,0,0,2.35,1,1.92,1.92,0,0,0,2.08-1.94c0-1-.61-1.6-2-1.93" fill="#fff"/>
    <path d="M105.22,22.59a.33.33,0,0,0-.31.34v6.29a.31.31,0,1,0,.62,0V22.93a.33.33,0,0,0-.31-.34" fill="#fff"/>
    <path d="M114.37,22.63h-4.31a.31.31,0,0,0-.29.32.3.3,0,0,0,.29.31h1.85v6a.32.32,0,0,0,.31.33.33.33,0,0,0,.31-.33v-6h1.84a.3.3,0,0,0,.29-.31.31.31,0,0,0-.29-.32" fill="#fff"/>
    <path d="M123.22,22.59a.34.34,0,0,0-.27.19l-2.13,3.38-2.12-3.38a.3.3,0,0,0-.27-.19.34.34,0,0,0-.32.34.41.41,0,0,0,.06.2l2.34,3.67v2.42a.31.31,0,1,0,.61,0V26.79l2.33-3.64a.42.42,0,0,0,.08-.23.34.34,0,0,0-.31-.33" fill="#fff"/>
  </g>
</svg>
